<?xml version="1.0" encoding="utf-8"?>
<!-- Generator: Adobe Illustrator 15.0.0, SVG Export Plug-In . SVG Version: 6.00 Build 0)  -->
<!DOCTYPE svg PUBLIC "-//W3C//DTD SVG 1.1//EN" "http://www.w3.org/Graphics/SVG/1.1/DTD/svg11.dtd">
<svg version="1.1" xmlns="http://www.w3.org/2000/svg" xmlns:xlink="http://www.w3.org/1999/xlink" x="0px" y="0px" width="52px"
	 height="52px" viewBox="0 0 52 52" enable-background="new 0 0 52 52" xml:space="preserve">
<g id="Layer_1">
	<g>
		<path fill="#BEC0C1" d="M51,1v50H1V1H51 M52,0H0v52h52V0L52,0z"/>
	</g>
</g>
<g id="Layer_2">
	<path fill="#FFFFFF" d="M9.071,39.22c0,1.517,1.229,2.744,2.744,2.744h27.44c1.517,0,2.744-1.228,2.744-2.744v-24.01
		c0-1.516-1.228-2.743-2.744-2.743h-2.744V10.75c0-0.946-0.769-1.715-1.715-1.715c-0.947,0-1.715,0.769-1.715,1.715v1.716h-2.744
		V10.75c0-0.946-0.769-1.715-1.716-1.715c-0.946,0-1.714,0.769-1.714,1.715v1.716h-2.744V10.75c0-0.946-0.77-1.715-1.715-1.715
		c-0.947,0-1.716,0.769-1.716,1.715v1.716H17.99V10.75c0-0.946-0.77-1.715-1.716-1.715S14.56,9.804,14.56,10.75v1.716h-2.744
		c-1.516,0-2.744,1.227-2.744,2.743V39.22L9.071,39.22z M14.011,15.896h0.548v2.401c0,0.946,0.769,1.715,1.715,1.715
		s1.716-0.769,1.716-1.715v-2.401h2.743v2.401c0,0.946,0.769,1.715,1.716,1.715c0.945,0,1.715-0.769,1.715-1.715v-2.401h2.744v2.401
		c0,0.946,0.768,1.715,1.715,1.715c0.946,0,1.715-0.769,1.715-1.715v-2.401h2.744v2.401c0,0.946,0.769,1.715,1.715,1.715
		c0.947,0,1.715-0.769,1.715-1.715v-2.401h0.55c0.836,0,1.509,0.673,1.509,1.509v7.272c0,0.836-0.673,1.509-1.509,1.509h-23.05
		c-0.837,0-1.51-0.673-1.51-1.509v-7.272C12.501,16.568,13.174,15.896,14.011,15.896z"/>
</g>
</svg>
