<?xml version="1.0" encoding="utf-8"?>
<!-- Generator: Adobe Illustrator 15.0.0, SVG Export Plug-In . SVG Version: 6.00 Build 0)  -->
<!DOCTYPE svg PUBLIC "-//W3C//DTD SVG 1.1//EN" "http://www.w3.org/Graphics/SVG/1.1/DTD/svg11.dtd">
<svg version="1.1" id="Layer_1" xmlns="http://www.w3.org/2000/svg" xmlns:xlink="http://www.w3.org/1999/xlink" x="0px" y="0px"
	 width="52px" height="52px" viewBox="0 0 52 52" enable-background="new 0 0 52 52" xml:space="preserve">
<g id="Layer_1_1_">
	<g>
		<path fill="#BEC0C1" d="M51,1v50H1V1H51 M52,0H0v52h52V0L52,0z"/>
	</g>
</g>
<g id="Layer_2">
	<g>
		<path fill="#FFFFFF" d="M37.398,27.723c-0.086-0.377-0.297-0.733-0.627-1.022c-0.332-0.286-0.736-0.459-1.158-0.522l-6.756-1.308
			l1.955,1.297l-3.086,9.674l-1.736-7.187l-1.739,7.187l-3.084-9.674l1.954-1.297l-6.756,1.308c-0.42,0.063-0.826,0.236-1.158,0.522
			c-0.331,0.289-0.54,0.646-0.625,1.022l-2.003,8.801l3.779,1.311c1.254,1.305,4.766,2.264,8.977,2.354h0.656h0.655
			c4.211-0.09,7.722-1.051,8.977-2.354l3.779-1.311L37.398,27.723z"/>
		<polygon fill="#FFFFFF" points="25.99,25.852 24.433,26.408 25.99,28.654 27.548,26.408 		"/>
		<path fill="#FFFFFF" d="M31.771,17.187c0-3.993-1.644-7.123-5.781-7.123c-4.14,0-5.782,3.13-5.782,7.123
			c-0.433,0.226-0.717,0.756-0.292,1.892c0.214,0.57,0.592,1.048,0.913,1.298c1.18,2.937,3.499,5.204,5.161,5.204
			c1.66,0,3.98-2.267,5.16-5.204c0.32-0.25,0.697-0.728,0.914-1.298C32.488,17.943,32.205,17.413,31.771,17.187z"/>
		<path fill="#FFFFFF" d="M12.082,34.516c-1.929-0.229-3.449-0.75-4.082-1.406l-2.45-0.853l1.299-5.705
			c0.056-0.244,0.192-0.477,0.405-0.663c0.215-0.186,0.479-0.298,0.751-0.339l4.745-1.087c-0.714-0.61-1.407-1.568-1.851-2.673
			c-0.208-0.162-0.453-0.472-0.592-0.842c-0.276-0.736-0.092-1.08,0.189-1.227c0-2.589,1.064-4.618,3.749-4.618l0,0
			c2.684,0,3.749,2.029,3.749,4.618c0.281,0.147,0.465,0.49,0.19,1.227c-0.14,0.37-0.385,0.68-0.593,0.842
			c-0.443,1.105-1.137,2.063-1.851,2.673l2.098,0.481l-1.633,0.316c-0.603,0.094-1.158,0.349-1.609,0.739
			c-0.469,0.409-0.788,0.935-0.921,1.517L12.082,34.516z M45.132,26.553c-0.057-0.244-0.192-0.477-0.405-0.663
			c-0.215-0.186-0.479-0.298-0.752-0.339l-4.744-1.087c0.715-0.61,1.406-1.568,1.852-2.673c0.208-0.162,0.452-0.472,0.592-0.842
			c0.276-0.736,0.092-1.08-0.188-1.227c0-2.589-1.066-4.618-3.75-4.618l0,0c-2.685,0-3.75,2.029-3.75,4.618
			c-0.279,0.147-0.465,0.49-0.188,1.227c0.139,0.37,0.385,0.68,0.592,0.842c0.443,1.105,1.137,2.063,1.852,2.673l-2.1,0.481
			l1.633,0.316c0.604,0.094,1.16,0.349,1.606,0.734c0.474,0.413,0.791,0.938,0.925,1.521l1.594,7c1.93-0.229,3.449-0.75,4.082-1.406
			l2.449-0.852L45.132,26.553z"/>
	</g>
</g>
</svg>
